<?xml version="1.0" encoding="UTF-8"?>
<svg id="Layer_1" xmlns="http://www.w3.org/2000/svg" version="1.1" viewBox="0 0 262 332">
  <!-- Generator: Adobe Illustrator 29.5.1, SVG Export Plug-In . SVG Version: 2.1.0 Build 141)  -->
  <defs>
    <style>
      .st0 {
        fill: #fff;
      }

      .st1 {
        fill: #2d3b22;
      }

      .st2 {
        fill: #f7f7dd;
      }

      .st3 {
        fill: #aa761a;
      }

      .st4 {
        fill: none;
        stroke: #aa761a;
        stroke-miterlimit: 10;
        stroke-width: 2px;
      }
    </style>
  </defs>
  <rect class="st1" x="6.73" y="37.47" width="248.07" height="250.47" rx="40.2" ry="40.2"/>
  <rect class="st4" x="1.49" y="29.35" width="255.82" height="268" rx="40.2" ry="40.2"/>
  <g>
    <path class="st3" d="M132.49,84.08c.39-.41.82.1,1.11.36,1.43,1.46,2.67,3.12,3.58,4.95,1.04,2.73,1.14,5.74.68,8.61-.59,3.12-2.44,5.79-4.42,8.2-.65-.52-1.23-1.12-1.72-1.8-1.09-1.49-2.25-2.97-2.88-4.72-1.12-3.15-1.15-6.67-.11-9.85.74-2.2,2.17-4.1,3.76-5.75ZM129.58,89.72c1.04.98,2.11,1.91,3.06,2.98.03-2.5-.08-5-.09-7.51-1.34,1.25-2.24,2.87-2.97,4.53ZM133.29,85.26c0,2.44.08,4.88.15,7.32.99-.97,2.03-1.9,2.97-2.93-.69-1.69-1.91-3.06-3.12-4.39ZM129.34,90.42c-.35,1.21-.55,2.45-.65,3.7,1.39,1.49,2.89,2.85,4.15,4.46-.26-1.61,0-3.25-.24-4.86-.99-1.19-2.08-2.3-3.26-3.3ZM133.42,93.61c-.07,1.53.2,3.06.16,4.59,1.04-1.11,2.06-2.24,3.16-3.29.21-.25.54-.48.57-.83.09-1.25-.3-2.47-.62-3.66-1.17.98-2.19,2.12-3.26,3.2ZM128.67,95.16c.24,3.53,1.81,6.9,4.24,9.45-.03-1.56,0-3.12-.14-4.68-.03-.7-.7-1.1-1.12-1.58-1.06-1-1.92-2.19-2.98-3.19ZM134.93,97.98c-.5.48-.97.99-1.42,1.51.08,1.71.11,3.41.13,5.12,2.47-2.48,3.61-6.01,3.83-9.43-.97.81-1.61,1.94-2.54,2.8Z"/>
    <path class="st3" d="M113.66,92.75c.23,0,.45,0,.68-.01-.24,1.91-.25,3.83.04,5.74,2.27-.48,4.61-.89,6.92-.43,3.48.66,6.98,2.3,9.04,5.29,1.43,1.79,2.24,3.95,3.1,6.05.52-2.82,2.07-5.34,4.01-7.4,2.34-2.27,5.45-3.74,8.7-4.04,2.04-.28,4.09.05,6.08.49.3-1.83.11-3.69.1-5.53.5-.56.8.23.78.68.08,1.89.16,3.82-.3,5.67-1.01,4.06-3.75,7.75-7.56,9.56-2.32,1.04-4.83,1.84-7.41,1.73-1.27-.06-2.54-.25-3.8-.44-.37,1.5-.4,3.07-.29,4.6,1.73-1.46,3.6-2.84,5.76-3.57,1.72-.7,3.58-.84,5.41-.96,3.71,0,7.36,1.55,10.02,4.12,1.24,1.34,2.3,2.85,3.07,4.5.17.27.3.78.72.57,1.23-.54,2.3-1.39,3.26-2.33.37-.38.82-.66,1.3-.9-.04.2-.13.61-.17.81-2.49,2.72-5.94,4.65-9.66,4.89-1.25.04-2.52.08-3.77-.05-3.96-.68-7.44-3.13-9.87-6.27-.68-.92-1.18-1.96-1.92-2.84-1.28.72-2.66,1.43-3.57,2.62,2.92.54,5.96,1.34,8.27,3.3,1.81,1.44,3.29,3.31,4.36,5.36,1.05,2.23,1.42,4.76,1.28,7.21-.13,2.14-.97,4.15-1.72,6.13,1.72.8,3.61,1.05,5.49,1.16.03.17.11.52.14.69-2.87.07-5.62-.9-8.11-2.23-2.21-1.43-4.09-3.41-5.25-5.79-.67,2.07-1.29,4.18-1.43,6.37-.51,6.07,2.15,12.23,6.75,16.18.42.4,1.06.72,1.02,1.41-.87-.11-1.44-.83-2.05-1.38-4.06-3.74-6.45-9.21-6.53-14.72.04-3,.7-6,1.87-8.76-.47-1.28-1.03-2.56-1.12-3.93-.11-1.78-.16-3.59.23-5.35.11-.73.45-1.46.36-2.21-.67-1.12-1.63-2.22-2.98-2.49-1.46-.29-3.09-.28-4.4.52-.58.4-1.12.87-1.58,1.4-.08.47.17.92.29,1.37,1.14,3.09,1.21,6.53.31,9.69-.28,1.02-.9,1.92-1.17,2.95-.06.52.2,1.01.34,1.5,1.5,4.53,1.4,9.67-.69,14-1.27,2.91-3.45,5.31-5.86,7.32-.31.3-.73.29-.86-.18.66-.79,1.51-1.38,2.23-2.11,1.85-1.89,3.47-4.08,4.39-6.58,1.45-4.17,1.41-8.87-.21-12.98-1.52,2.16-3.52,4.03-5.95,5.11-1.92.81-3.96,1.45-6.07,1.37,0-.16.02-.47.03-.62,1.88-.2,3.78-.53,5.49-1.38-1.45-3.02-2.41-6.43-1.8-9.8.38-2.95,1.82-5.7,3.81-7.88.25-.23.53-.44.82-.62-.46-.04-.72.42-1.08.64-4.4,3.39-10.77,3.56-15.57.91-1.38-.69-2.5-1.77-3.68-2.74.09-.25.11-.58.45-.59.61.42,1.11.99,1.69,1.44.87.71,1.89,1.19,2.91,1.63,1.03-2.29,2.35-4.52,4.21-6.24,1.57-1.37,3.33-2.58,5.35-3.14,2.76-.76,5.75-.91,8.52-.1,2.24.57,4.19,1.9,6.08,3.18-.09-1.42-.05-2.86-.36-4.25-3.11.7-6.49.71-9.49-.49-3.91-1.4-7.23-4.48-8.7-8.39-1.09-2.66-1.15-5.61-.76-8.43ZM115.03,99.08c2.61,1.71,5.03,3.7,7.64,5.42-.11-1.82-.3-3.65-.65-5.43-2.27-.68-4.71-.5-6.99.01ZM144.87,99.1c-.47,1.39-.78,2.83-1.12,4.25,2.49-1.38,4.84-2.99,7.35-4.32-1.79-.41-3.64-.52-5.45-.28-.26.08-.7,0-.78.35ZM141.4,100.08c-.72,1.9-1.22,3.86-1.83,5.79.88-.51,1.74-1.07,2.6-1.6.27-.19.62-.36.71-.71.52-1.49.8-3.05,1.25-4.55-.94.28-1.84.65-2.72,1.07ZM122.8,99.2c.3,1.92.31,3.89.8,5.77.86.78,1.99,1.25,2.99,1.86-.12-2.07-.66-4.11-.62-6.19-.87-.82-2.03-1.2-3.18-1.44ZM148.2,101.53c-1.35.8-2.72,1.55-4.05,2.39,1.57.34,3.08.89,4.63,1.3,1.58-1.58,2.52-3.67,3.16-5.78-1.32.55-2.5,1.38-3.75,2.08ZM114.75,99.88c.8,2.11,1.78,4.27,3.5,5.79,1.26-.22,2.53-.37,3.77-.65-.87-.76-1.81-1.45-2.79-2.06-1.54-.96-2.95-2.11-4.49-3.08ZM134.42,108.94c.96-.58,1.86-1.27,2.87-1.8.58-.35,1.35-.63,1.52-1.37.53-1.64.92-3.32,1.44-4.97-3,1.72-4.94,4.85-5.83,8.13ZM126.74,101.05c.32,2.06.27,4.19.86,6.2,1.52.68,3.11,1.26,4.71,1.75-.97-3.13-2.72-6.17-5.56-7.95ZM139.97,106.36c1.91.37,3.78.89,5.68,1.3,1.02-.39,1.82-1.19,2.68-1.86-1.6-.53-3.24-.91-4.87-1.35-1.2.57-2.35,1.22-3.49,1.9ZM118.56,106.17c1.1.64,2.08,1.53,3.28,1.96,1.4-.16,2.81-.41,4.17-.8-1.06-.51-2.02-1.24-3.12-1.67-1.45.05-2.87.58-4.34.5ZM137.37,107.96c-.76.54-1.66.9-2.29,1.61,3.18.33,6.51.25,9.4-1.27-1.55-.52-3.17-.84-4.77-1.17-.88-.21-1.64.39-2.34.82ZM123.23,108.8c2.59,1.12,5.46,1.03,8.2.75-1.41-.54-2.78-1.25-4.25-1.6-1.34.17-2.63.56-3.95.85ZM139.19,112.17c1.38.7,2.88,1.16,4.32,1.71,2.04-.47,3.93-1.47,5.91-2.14-3.28-1.36-7.04-.97-10.23.43ZM117.78,112.4c1.44.74,2.99,1.26,4.52,1.79,1.82-.58,3.56-1.38,5.38-1.95-1.28-.48-2.59-.92-3.97-.92-2-.06-4.15.1-5.93,1.08ZM144.9,114.36c1.15.48,2.3.95,3.46,1.4,1.49-.84,3.08-1.44,4.64-2.13-.79-.5-1.53-1.12-2.44-1.36-1.96.47-3.78,1.39-5.66,2.1ZM114.08,114.4c1.18.56,2.36,1.11,3.52,1.7,1.23-.47,2.46-.93,3.65-1.49-1.34-.39-2.62-.93-3.91-1.46-1.23-.64-2.3.63-3.26,1.24ZM125.43,118.03c2.2-1.39,4.61-2.55,7.22-2.88-1.12-1.01-2.43-1.78-3.8-2.41-.94,1.88-2.1,3.64-3.41,5.29ZM122.91,114.76c-.6.2-.77.85-1,1.37-.6,1.56-1.33,3.06-1.86,4.65,1.81-.67,3.25-1.99,4.65-3.25,1.33-1.24,2.26-2.83,3.04-4.46-1.62.51-3.29.95-4.83,1.69ZM139.23,113.12c.97,1.41,1.85,2.9,3.13,4.06,1.07.95,2.28,1.72,3.5,2.47-.54-1.28-1.08-2.56-1.72-3.79-.29-.5-.46-1.16-1.05-1.37-1.24-.56-2.58-.89-3.85-1.37ZM149.27,116.07c1.17.53,2.44.8,3.63,1.31,1.45.6,2.92,1.15,4.41,1.66-.92-1.85-2.06-3.65-3.77-4.88-1.4.7-2.88,1.2-4.27,1.91ZM109.87,120.16c2.17-.89,4.09-2.27,6.22-3.24.21-.12.5-.21.51-.5-1-.55-2.03-1.07-3.14-1.39-1.5,1.47-2.81,3.17-3.59,5.13ZM144.72,115.11c.84,1.6,1.46,3.32,2.3,4.92.9.61,2.01.81,3.06,1-.51-1.57-1.15-3.09-1.83-4.59-1.18-.43-2.36-.88-3.53-1.33ZM117.98,116.66c-.78,1.71-1.39,3.49-2.13,5.21,1.05-.1,2.25-.17,3.11-.81.9-1.9,1.65-3.86,2.44-5.8-1.15.45-2.25,1-3.42,1.4ZM137.24,116.61c.36.49.75.95,1.17,1.39.03-.17.1-.52.14-.69-.43-.24-.87-.48-1.3-.7ZM149.23,116.78c.65,1.5,1.14,3.06,1.98,4.47,2.09-.02,4.24-.23,6.15-1.14,0-.06-.03-.17-.04-.23-2.66-1.12-5.42-1.97-8.08-3.09ZM109.8,121.04c1.66.62,3.39,1.14,5.18.98.59-1.6,1.28-3.16,1.89-4.75-2.34,1.3-4.69,2.56-7.07,3.77ZM139.62,117.59c.4,1.35,1.14,2.57,1.55,3.91.25.6.33,1.39,1,1.69,1.51.86,3.15,1.48,4.66,2.35-1.3-3.44-3.91-6.33-7.21-7.95ZM123.48,120.93c-1.26,1.2-2,2.81-2.63,4.41,1.4-.96,3.1-1.5,4.32-2.69.76-1.56,1.29-3.23,2-4.81-1.39.83-2.61,1.9-3.69,3.1ZM139.1,117.96c-.11,1.09-.58,2.1-.8,3.18-.55,2.54-.38,5.21.33,7.71.72-1.18,1.11-2.51,1.68-3.76.23-.63.62-1.24.64-1.92-.4-1.8-1.47-3.39-1.85-5.2ZM126.14,122.36c-.4.85.24,1.67.55,2.43.72,1.36,1.27,2.83,2.21,4.06.98-3.58.42-7.41-1-10.79-.59,1.43-1.23,2.84-1.76,4.3ZM120.46,126.44c-.21.96-.35,1.93-.4,2.91.89-.43,1.69-1.03,2.58-1.45.37-.19.82-.35.92-.81.38-1.06.86-2.07,1.19-3.15-1.41.87-2.81,1.74-4.28,2.5ZM142.28,124.11c.34,1.18.69,2.4,1.43,3.39,1.16.76,2.54,1.14,3.82,1.68-.09-.82-.13-1.66-.37-2.45-.08-.47-.61-.53-.97-.71-1.38-.47-2.6-1.3-3.91-1.91ZM125.45,124.16c-.4,1.31-1.32,2.57-1.16,3.99.75,1.69,1.7,3.29,2.49,4.96.7-.97,1.31-2.01,1.7-3.14-1-1.94-2.01-3.87-3.02-5.8ZM139.4,129.29c-.11.36-.33.78-.09,1.14.44.87.99,1.68,1.48,2.52.76-1.78,1.48-3.58,2.05-5.42-.41-1.09-.89-2.15-1.35-3.22-.71,1.66-1.46,3.3-2.1,4.98ZM120.32,129.96c-.34.17-.33.61-.3.94.17,1.93.78,3.79,1.56,5.55.65-2.65,1-5.37,1.64-8.03-.94.57-1.95,1-2.9,1.54ZM143.95,128.52c.66,2.57,1.6,5.06,2.2,7.64.96-1.91,1.4-4.08,1.42-6.21-1.22-.44-2.43-.91-3.62-1.43ZM123.06,132.9c-.3,1.42-.57,2.85-.76,4.3,1.46-.91,2.88-1.94,3.87-3.38-.74-1.64-1.43-3.32-2.33-4.88-.4,1.29-.5,2.65-.78,3.96ZM141.33,133.6c1.13,1.48,2.8,2.33,4.26,3.42-.64-2.77-1.55-5.47-2.3-8.21-.74,1.56-1.36,3.17-1.96,4.79Z"/>
  </g>
  <rect class="st0" x="176.48" y="79.16" width="1.97" height="80.34" rx=".98" ry=".98"/>
  <rect class="st0" x="86.59" y="79.49" width="1.97" height="80.34" rx=".98" ry=".98"/>
  <path class="st2" d="M193.65,192.89c.49.06.99.11,1.48.18-.02,3.36.02,6.72-.02,10.07,3.75.08,7.5-.02,11.26.05-2.03-1.63-3.82-3.54-5.29-5.7.38-.39.77-.77,1.18-1.13,1.79,2.79,4.2,5.33,7.23,6.76,1.62.1,3.25.07,4.87,0,.43.03.61-.39.77-.71.7-1.58.93-3.35,1.9-4.81.94-1.47,3.27-1.64,4.45-.39,1.42,1.39,1.67,3.56,1.44,5.44-.05,1.01-1.08,1.5-1.71,2.15-1.6-.35-3.2-.65-4.8-.99-.98-.42-1.37,1.08-2.37.83-6.35.02-12.71.01-19.06,0-.45-.46-.96-.86-1.3-1.4-.09-3.45,0-6.91-.04-10.37ZM218.53,198.04c-1.21.98-1.56,2.6-1.94,4.02,1.67.31,3.33.66,4.99,1.03.29-1.61.21-3.46-.93-4.74-.51-.61-1.46-.87-2.12-.32Z"/>
  <path class="st2" d="M23.38,193.09c1.08.05,2.15.14,3.23.27-.02,7.44-.02,14.88,0,22.32,3.13-.06,6.25.03,9.38-.04-.04-4.76-.04-9.51,0-14.26,1.07-.08,2.14-.18,3.21-.27-.01,4.85,0,9.7-.01,14.55,4.41,0,8.83.02,13.24-.01-.02-4.77-.02-9.53,0-14.29,1.08-.08,2.15-.17,3.22-.25-.02,4.85,0,9.7-.01,14.55,2.17,0,4.34.04,6.51-.06,1.08-.05,1.58-1.18,1.96-2.03,1.3-3.29,1.88-6.89,3.77-9.93,1.13-1.86,3.25-3.05,5.43-2.97,2.51-.13,4.75,1.56,5.98,3.64,1.99,3.35,2.32,7.52,1.49,11.27,2.66.11,5.33.07,7.99.09-1.42-1.25-2.97-2.7-3.15-4.71-.25-2.24,1.2-4.22,2.81-5.61,2.99-2.53,6.79-4.04,10.67-4.45.01,1.15,0,2.3.02,3.45-3.08.39-6.35,1.16-8.63,3.4-1.16,1.07-1.76,2.93-.85,4.34,1.2,1.82,3.41,2.58,5.44,3.09,2.38.67,4.85.48,7.29.48-.29,1.05-.66,2.08-.99,3.13-8.47.06-16.93.03-25.4.01-3.66-.57-7.26-1.48-10.91-2.1-.65,1.13-1.75,2.18-3.14,2.11-11.84.04-23.69.01-35.54.01-.99-.97-1.96-1.95-2.97-2.89-.06-7.61.01-15.23-.04-22.84ZM69.84,205.91c-1.43,2.16-2.17,4.7-2.72,7.2,3.63.75,7.26,1.5,10.88,2.26.78-3.14.49-6.66-1.27-9.43-.77-1.16-1.94-2.31-3.42-2.3-1.51-.05-2.68,1.12-3.48,2.27Z"/>
  <path class="st2" d="M36.53,194.37c1.55-.79,3.42.88,2.83,2.5-.33,1.36-2.16,1.93-3.21,1.03-1.14-.89-.94-2.93.39-3.53Z"/>
  <path class="st2" d="M49.72,197.1c-.68-1.35.44-2.82,1.79-3.07,1.43.21,2.55,1.73,1.86,3.12-.6,1.56-3.1,1.55-3.65-.05Z"/>
  <path class="st2" d="M54.59,194.98c.36-.56,1.04-.71,1.6-.96.91.26,1.94.82,2.01,1.88.29,1.33-.99,2.69-2.34,2.39-1.48-.18-2.14-2.16-1.27-3.31Z"/>
  <path class="st2" d="M116.97,194.39c1.44-.82,3.27.69,2.88,2.26-.16,1.38-1.91,2.17-3.06,1.39-1.29-.82-1.2-2.97.18-3.65Z"/>
  <path class="st2" d="M121.66,194.36c1.3-.69,2.98.46,2.9,1.9.05,1.35-1.39,2.45-2.68,1.98-1.68-.51-1.81-3.18-.22-3.88Z"/>
  <path class="st2" d="M143.22,197.1c-.68-1.36.44-2.82,1.8-3.08,1.44.21,2.57,1.74,1.86,3.15-.63,1.54-3.09,1.52-3.66-.06Z"/>
  <path class="st2" d="M231.96,226.75c-.68-1.36.44-2.82,1.8-3.08,1.44.21,2.57,1.74,1.86,3.15-.63,1.54-3.09,1.52-3.66-.06Z"/>
  <path class="st2" d="M167.62,196.77c.48-.06.97-.12,1.46-.17,0,.89.01,1.79.04,2.69,1.26-1.66,3.24-3.05,5.43-2.64,2.99.41,4.86,3.61,4.55,6.46,1.65.06,3.32.12,4.97-.02,1.32-1.55,1.22-3.88,2.45-5.53.96-1.44,3.26-1.58,4.44-.34,1.37,1.39,1.68,3.5,1.44,5.37-.05,1.04-1.08,1.55-1.73,2.21-1.8-.37-3.59-.79-5.4-1.07-.54.36-.97,1-1.7.91-4.84.03-9.67,0-14.51,0,0,.74-.01,1.48-.03,2.23-.46.44-.91.87-1.37,1.31-2.06-.05-4.13.03-6.19-.03-1.19-.04-2.18-1.01-2.35-2.16-.21-1.44-.06-2.91-.1-4.37.48-.03.96-.06,1.43-.09.02,1.27-.06,2.53.03,3.8.03.81.83,1.42,1.62,1.37,1.82.05,3.65-.03,5.47.04.09-3.32.03-6.65.03-9.98ZM188.03,198.02c-1.24.97-1.6,2.61-1.98,4.06,1.69.17,3.37.96,5.04.79.29-1.52.07-3.24-.95-4.46-.5-.62-1.45-.94-2.11-.39ZM169,203.11c2.84.13,5.69,0,8.53.07.12-2.11-.98-4.72-3.34-4.96-2.79-.37-5.08,2.24-5.19,4.89Z"/>
  <path class="st2" d="M117.28,202.36c2.61-1.52,5.8-1.72,8.7-1.05.06,4.46,0,8.93.04,13.4-.04.5.1,1.11-.33,1.48-.81.89-1.7,1.71-2.51,2.61-1.74-.01-3.57.24-5.21-.47-2.82-1.01-5.02-3.67-5.27-6.68-.28-3.59,1.37-7.48,4.58-9.28ZM118.86,204.94c-3.08,1.72-3.99,6.41-1.7,9.11,1.41,1.62,3.7,1.94,5.72,1.74v-11.88c-1.4.03-2.81.29-4.02,1.03Z"/>
  <path class="st2" d="M134.49,201.34c1.01-.04,2.01-.13,3.01-.27.12,6.21.01,12.42.05,18.64.05,2.42-.84,5-2.86,6.46-1.5,1.15-3.4,1.5-5.22,1.78-.96-.98-1.75-2.1-2.62-3.15,2.08-.15,4.32-.44,6-1.79,1.1-.85,1.62-2.25,1.61-3.61.03-6.02-.03-12.04.03-18.06Z"/>
  <path class="st2" d="M143.63,201.1c3.04.2,5.97,1.73,7.83,4.14,2.31,2.92,3.18,6.76,3.04,10.42,26.47.03,52.95,0,79.42.01,0-4.76-.02-9.52.01-14.28,1.07-.1,2.14-.19,3.21-.25-.06,4.93.01,9.87-.03,14.8-1,.96-1.96,1.95-2.95,2.91-31.65-.01-63.3.01-94.95-.01.35-1.04.57-2.13,1.07-3.11,3.66-.1,7.32-.04,10.98-.02,0-3.09-.69-6.41-2.92-8.7-1.42-1.5-3.45-2.28-5.48-2.41.22-1.17.51-2.33.76-3.49Z"/>
</svg>